<svg id="Ebene_1" data-name="Ebene 1" xmlns="http://www.w3.org/2000/svg" viewBox="0 0 507.97 517.33">
  <g>
    <polygon points="0 44 0 115.99 254.37 71.99 254.37 0 0 44" style="fill: #0080bd"/>
    <polygon points="0 325.52 0 397.52 254.37 353.52 254.37 281.53 0 325.52" style="fill: #0080bd"/>
    <polygon points="254.37 72 507.97 113.59 507.97 41.61 254.37 0 254.37 72" style="fill: #b90069"/>
    <polygon points="254.37 211.18 507.97 252.77 507.97 180.78 254.37 139.18 254.37 211.18" style="fill: #b90069"/>
    <polygon points="254.37 517.33 507.96 517.33 507.96 461.14 254.37 419.55 254.37 517.33" style="fill: #b90069"/>
    <polygon points="254.43 517.33 0.85 517.33 0.85 461.14 254.43 419.55 254.43 517.33" style="fill: #0080bd"/>
    <polygon points="0.01 183.18 0.01 255.17 104.61 237.07 104.61 165.09 0.01 183.18" style="fill: #0080bd"/>
    <polygon points="170.61 153.67 170.61 225.67 254.37 211.18 254.37 139.19 170.61 153.67" style="fill: #0080bd"/>
    <polygon points="336.46 294.99 254.37 281.53 254.37 353.52 336.46 366.99 336.46 294.99" style="fill: #b90069"/>
    <polygon points="507.97 113.59 403.19 96.4 403.19 163.59 507.97 113.59" style="fill: #245987"/>
    <polygon points="507.97 252.77 403.19 235.58 403.19 302.62 507.97 252.77" style="fill: #245987"/>
    <polygon points="507.97 394.84 403.19 377.65 403.19 444.19 507.97 394.84" style="fill: #245987"/>
    <polygon points="0 115.99 104.61 165.09 104.5 97.92 0 115.99" style="fill: #245987"/>
    <polygon points="0.01 255.17 104.61 307.49 104.61 236.48 0.01 255.17" style="fill: #245987"/>
    <polygon points="0 397.52 104.61 444.11 104.5 379.52 0 397.52" style="fill: #245987"/>
    <polygon points="507.97 394.84 507.97 319.8 403.19 302.62 403.19 377.65 507.97 394.84" style="fill: #b90069"/>
  </g>
</svg>
